<svg version="1.1" id="Layer_1" xmlns="http://www.w3.org/2000/svg" xmlns:xlink="http://www.w3.org/1999/xlink" x="0px" y="0px"
	 width="100%" viewBox="0 0 104 106" enable-background="new 0 0 104 106" xml:space="preserve">
<path fill="#FFFFFF" opacity="1.000000" stroke="none" 
	d="
M61.000000,1.000000 
	C75.649223,1.000000 90.298447,1.000000 104.973831,1.000000 
	C104.973831,36.273857 104.973831,71.547737 104.973831,106.910812 
	C70.434227,106.910812 35.868145,106.910812 1.151032,106.910812 
	C1.151032,71.667160 1.151032,36.333656 1.151032,1.000000 
	C5.732412,1.000000 10.393542,1.000000 15.527336,1.468657 
	C16.000000,31.118523 16.000000,60.299732 16.000000,89.975708 
	C27.168631,85.579147 37.818405,81.413452 48.447067,77.194580 
	C57.278458,73.689102 66.103523,70.166267 74.896202,66.565178 
	C80.965027,64.079666 82.097015,57.963776 76.868057,54.356236 
	C70.472008,49.943501 64.148727,45.425442 57.780033,40.972870 
	C48.621040,34.569492 39.186005,28.522156 30.383732,21.662123 
	C25.241432,17.654480 25.770039,12.967829 30.278112,8.149195 
	C32.357212,5.926863 34.103054,3.392748 36.000000,1.000000 
	C40.356899,1.000000 44.713799,1.000000 49.373856,1.355398 
	C40.283424,2.707104 36.828228,7.711766 41.528843,13.855466 
	C43.608906,16.574104 46.243935,19.096849 49.119797,20.939423 
	C63.801788,30.346216 78.638397,39.512009 93.455910,48.705715 
	C94.014557,49.052338 94.933990,48.817513 95.692604,48.853996 
	C95.444901,45.264633 95.385941,42.010750 94.969917,38.803173 
	C93.299141,25.921400 88.206711,14.767447 76.919312,7.668457 
	C72.115173,4.646986 66.336044,3.175740 61.000000,1.000000 
M74.416443,81.915749 
	C61.136070,87.181076 57.042568,91.376678 55.920429,100.873100 
	C74.164169,101.080154 90.697334,86.860161 88.868080,75.891663 
	C84.304062,77.728340 79.678658,79.589722 74.416443,81.915749 
z"/>
<path fill="#1D3567" opacity="1.000000" stroke="none" 
	d="
M35.531597,1.000000 
	C34.103054,3.392748 32.357212,5.926863 30.278112,8.149195 
	C25.770039,12.967829 25.241432,17.654480 30.383732,21.662123 
	C39.186005,28.522156 48.621040,34.569492 57.780033,40.972870 
	C64.148727,45.425442 70.472008,49.943501 76.868057,54.356236 
	C82.097015,57.963776 80.965027,64.079666 74.896202,66.565178 
	C66.103523,70.166267 57.278458,73.689102 48.447067,77.194580 
	C37.818405,81.413452 27.168631,85.579147 16.000000,89.975708 
	C16.000000,60.299732 16.000000,31.118523 16.000000,1.468657 
	C22.354399,1.000000 28.708796,1.000000 35.531597,1.000000 
z"/>
<path fill="#F27B21" opacity="1.000000" stroke="none" 
	d="
M60.541931,1.000000 
	C66.336044,3.175740 72.115173,4.646986 76.919312,7.668457 
	C88.206711,14.767447 93.299141,25.921400 94.969917,38.803173 
	C95.385941,42.010750 95.444901,45.264633 95.692604,48.853996 
	C94.933990,48.817513 94.014557,49.052338 93.455910,48.705715 
	C78.638397,39.512009 63.801788,30.346216 49.119797,20.939423 
	C46.243935,19.096849 43.608906,16.574104 41.528843,13.855466 
	C36.828228,7.711766 40.283424,2.707104 49.838509,1.355398 
	C53.361286,1.000000 56.722576,1.000000 60.541931,1.000000 
z"/>
<path fill="#F27B21" opacity="1.000000" stroke="none" 
	d="
M74.734848,81.683426 
	C79.678658,79.589722 84.304062,77.728340 88.868080,75.891663 
	C90.697334,86.860161 74.164169,101.080154 55.920429,100.873100 
	C57.042568,91.376678 61.136070,87.181076 74.734848,81.683426 
z"/>
</svg>