<?xml version="1.0" encoding="utf-8"?>
<!-- Generator: Adobe Illustrator 27.1.1, SVG Export Plug-In . SVG Version: 6.00 Build 0)  -->
<svg version="1.1" id="Layer_1" xmlns="http://www.w3.org/2000/svg" xmlns:xlink="http://www.w3.org/1999/xlink" x="0px" y="0px"
	 viewBox="0 0 454 434" style="enable-background:new 0 0 454 434;" xml:space="preserve">
<style type="text/css">
	.st0{opacity:0.25;}
	.st1{fill:#1D3567;}
</style>
<g>
	<g class="st0">
		<path class="st1" d="M362.9,81.3c2.7,4.8,9.2,8.4,14.8,6.8c4.4-1.2,7.7-5.3,8.7-9.6c1-4.1-0.2-8.1-3.5-10
			c-1.1-4.8-8.2-5.1-12.7-3.6C363.4,67.1,359.3,74.8,362.9,81.3z"/>
		<path class="st1" d="M3.3,201c-0.5,3.6,1.5,7.4,4.2,9.6c2.9,2.4,6.8,2.3,9.3,0c2.9-1,4.8-3.8,4.1-7.4c-0.7-3.9-4-7.7-7.9-8.6
			C8.6,193.7,3.9,196.4,3.3,201z"/>
		<path class="st1" d="M291.5,126.6c-1.8,5.1,2,9.7,6.4,11.7c4.2,2.1,8.8,0.6,10.5-4c1.5-4,0.1-8.9-3.7-11.1
			C300.4,120.6,293.4,121.2,291.5,126.6z"/>
		<path class="st1" d="M297.7,88.9c3,1.7,6.6,1.4,8.8-1.4c2.2-2.8,0.8-6.6-2.1-8.3c-2.9-1.7-6.7-1.1-8.8,1.6
			C293.7,83.6,294.8,87.3,297.7,88.9z"/>
		<path class="st1" d="M343.6,112.7c-3.2-0.3-6.1,2-6.4,5.3c-0.2,3,1.6,5.7,4.4,6.7c0.6,0.3,1.3,0.4,2,0.2c2.8-0.8,5.1-3.1,5.3-6.1
			C349.1,115.5,346.8,113,343.6,112.7z"/>
		<path class="st1" d="M288.2,41.4c-3.3-0.3-6.1,2-6.4,5.3c-0.2,3,1.6,5.7,4.4,6.7c0.6,0.3,1.3,0.4,2,0.2c2.8-0.8,5.1-3.1,5.3-6.1
			C293.7,44.3,291.4,41.7,288.2,41.4z"/>
		<path class="st1" d="M329.9,69c3.6,2.4,7.3-3.2,3.7-5.6C330.1,61,326.3,66.6,329.9,69z"/>
		<path class="st1" d="M326.6,163.5c-3.6-2.4-7.3,3.2-3.7,5.6C326.5,171.5,330.2,165.9,326.6,163.5z"/>
		<path class="st1" d="M170.2,33.9c-3.6-2.4-7.3,3.2-3.7,5.6C170.1,41.9,173.8,36.3,170.2,33.9z"/>
		<path class="st1" d="M96.4,106.3c-3.6-2.4-7.3,3.2-3.7,5.6C96.2,114.3,100,108.7,96.4,106.3z"/>
		<path class="st1" d="M150.1,69.9c-3.6-2.4-7.3,3.2-3.7,5.6C150,77.9,153.7,72.3,150.1,69.9z"/>
		<path class="st1" d="M253.6,142c3.6,2.4,7.3-3.2,3.7-5.6C253.7,134,250,139.6,253.6,142z"/>
		<path class="st1" d="M353.7,200.5c-1,2.9,0.2,6.2,2.8,7.7c2.5,1.5,5.2,0.8,6.9-1.1c0.8-0.1,1.5-0.4,2.2-1c1.4-1.2,1.8-3.5,1.5-5.2
			c-0.5-3-3.4-5.1-6.3-5.3C357.6,195.4,354.7,197.5,353.7,200.5z"/>
		<path class="st1" d="M294.6,207.2c-1,2.9,0.2,6.2,2.8,7.7c2.5,1.5,5.2,0.8,6.9-1.1c0.8-0.1,1.5-0.4,2.2-1c1.4-1.2,1.8-3.5,1.5-5.2
			c-0.5-3-3.4-5.1-6.3-5.3C298.5,202.1,295.6,204.2,294.6,207.2z"/>
		<path class="st1" d="M406.8,191.3c-1.1,4.5,1.2,8.7,4.9,11.1c0.2,0.1,0.3,0.3,0.5,0.3c0.3,0.1,0.5,0.3,0.8,0.4c0,0,0,0,0,0
			c0,0,0,0,0,0c2,0.9,4.2,1.2,6.3,0.2c1.9-0.9,3.2-2.7,3.7-4.7c1.3-4.5-0.7-9.5-5-11.5C413.7,184.9,408,186,406.8,191.3z"/>
		<path class="st1" d="M22.5,269.4c0.2,0.5,0.4,0.9,0.6,1.3c0.2,0.5,0.6,0.9,1,1.2c0.1,0.3,0.3,0.7,0.6,0.9c0.6,0.6,1.4,1.1,2.3,1.1
			c2.3,0.1,4.8-0.3,6.2-2.3c1.3-1.9,0.6-4.3-0.8-6c-1-1.2-2.4-2.1-3.8-2.8c-1.7-0.8-3.8-0.8-5.2,0.5c-1.2,1.1-1.5,2.6-1.3,4.2
			C22.1,268.2,22.3,268.8,22.5,269.4z"/>
		<path class="st1" d="M374.2,134.1c0.2,0.5,0.4,0.9,0.6,1.3c0.2,0.5,0.6,0.9,1,1.2c0.1,0.3,0.3,0.7,0.6,0.9
			c0.6,0.6,1.4,1.1,2.3,1.1c2.3,0.1,4.8-0.3,6.2-2.3c1.3-1.9,0.6-4.3-0.8-6c-1-1.2-2.4-2.1-3.8-2.8c-1.7-0.8-3.8-0.8-5.2,0.5
			c-1.2,1.1-1.5,2.6-1.3,4.2C373.8,133,374,133.5,374.2,134.1z"/>
		<path class="st1" d="M110.6,71.4c0.2,0.5,0.4,0.9,0.6,1.3c0.2,0.5,0.6,0.9,1,1.2c0.1,0.3,0.3,0.7,0.6,0.9c0.6,0.6,1.4,1.1,2.3,1.1
			c2.3,0.1,4.8-0.3,6.2-2.3c1.3-1.9,0.6-4.3-0.8-6c-1-1.2-2.4-2.1-3.8-2.8c-1.7-0.8-3.8-0.8-5.2,0.5c-1.2,1.1-1.5,2.6-1.3,4.2
			C110.2,70.3,110.4,70.9,110.6,71.4z"/>
		<path class="st1" d="M6.2,241.2c-3.6-2.4-7.3,3.2-3.7,5.6C6.1,249.1,9.8,243.6,6.2,241.2z"/>
		<path class="st1" d="M71.4,338.5c4.3,3.1,9.6,1.2,12.1-3.1c2.6-4.5,1.9-10.4-2.5-13.5c-4.5-3.1-10.9-2.4-13.8,2.5
			C64.2,329.5,66.6,335.5,71.4,338.5z"/>
		<path class="st1" d="M23.8,121.1c4.3,3.1,9.6,1.2,12.1-3.1c2.6-4.5,1.9-10.4-2.5-13.5c-4.5-3.1-10.9-2.4-13.8,2.5
			C16.6,112.1,19.1,118.1,23.8,121.1z"/>
		<path class="st1" d="M425.2,277.5c4.3,3.1,9.6,1.2,12.1-3.1c2.6-4.5,1.9-10.4-2.5-13.5c-4.5-3.1-10.9-2.4-13.8,2.5
			C418,268.5,420.4,274.5,425.2,277.5z"/>
		<path class="st1" d="M16.7,328.4c0.6,4,4.5,6.4,8.3,5.8c1.2-0.2,2.1-1.1,2.5-2.1c2.1-1.2,3.3-3.4,2.6-6c-0.8-2.9-3.5-5.1-6.6-5.2
			C19.5,320.7,16.1,324.4,16.7,328.4z"/>
		<path class="st1" d="M233.7,7.6c0.6,4,4.5,6.4,8.3,5.8c1.2-0.2,2.1-1.1,2.5-2.1c2.1-1.2,3.3-3.4,2.6-6c-0.8-2.9-3.5-5.1-6.6-5.2
			C236.5-0.1,233.1,3.6,233.7,7.6z"/>
		<path class="st1" d="M58.1,291.2c-0.1,0.5-0.2,1.1-0.2,1.6c0,0.5,0,1.1,0.1,1.6c0,0.3,0.1,0.5,0.1,0.8c0.3,1.1,0.7,1.9,1.3,2.8
			c0.1,0.1,0.1,0.2,0.2,0.2c0.3,0.3,0.6,0.6,0.9,0.8c0.3,0.2,0.7,0.4,1.1,0.5c0.1,0,0.2,0.1,0.3,0.1c1.4,0.4,2.7,0.2,4-0.3
			c0.6-0.2,1.1-0.6,1.6-1c0.4-0.3,0.7-0.6,1.1-0.9c0.2-0.2,0.4-0.4,0.6-0.6c0.4-0.3,0.6-0.7,0.8-1.1c0.2-0.4,0.4-0.8,0.4-1.3
			c0-0.8-0.2-1.7-0.8-2.3c-0.1-0.2-0.1-0.3-0.2-0.4c-0.7-1-1.3-2.1-2.3-2.9c-0.4-0.4-0.9-0.9-1.4-1.1c-0.8-0.4-1.4-0.7-2.3-0.8
			c-1.2-0.2-2.5,0.3-3.4,1.1c-0.8,0.6-1.3,1.6-1.7,2.5C58.2,290.7,58.1,290.9,58.1,291.2z"/>
		<path class="st1" d="M109.9,260.3c-0.1,0.5-0.2,1.1-0.2,1.6c0,0.5,0,1.1,0.1,1.6c0,0.3,0.1,0.5,0.1,0.8c0.3,1.1,0.7,1.9,1.3,2.8
			c0.1,0.1,0.1,0.2,0.2,0.2c0.3,0.3,0.6,0.6,0.9,0.8c0.3,0.2,0.7,0.4,1.1,0.5c0.1,0,0.2,0.1,0.3,0.1c1.4,0.4,2.7,0.2,4-0.3
			c0.6-0.2,1.1-0.6,1.6-1c0.4-0.3,0.7-0.6,1.1-0.9c0.2-0.2,0.4-0.4,0.6-0.6c0.4-0.3,0.6-0.7,0.8-1.1c0.2-0.4,0.4-0.8,0.4-1.3
			c0-0.8-0.2-1.7-0.8-2.3c-0.1-0.2-0.1-0.3-0.2-0.4c-0.7-1-1.3-2.1-2.3-2.9c-0.4-0.4-0.9-0.9-1.4-1.1c-0.8-0.4-1.4-0.7-2.3-0.8
			c-1.2-0.2-2.5,0.3-3.4,1.1c-0.8,0.6-1.3,1.6-1.7,2.5C110.1,259.8,110,260,109.9,260.3z"/>
		<path class="st1" d="M128.8,174.9c-0.1,0.5-0.2,1.1-0.2,1.6c0,0.5,0,1.1,0.1,1.6c0,0.3,0.1,0.5,0.1,0.8c0.3,1.1,0.7,1.9,1.3,2.8
			c0.1,0.1,0.1,0.2,0.2,0.2c0.3,0.3,0.6,0.6,0.9,0.8c0.3,0.2,0.7,0.4,1.1,0.5c0.1,0,0.2,0.1,0.3,0.1c1.4,0.4,2.7,0.2,4-0.3
			c0.6-0.2,1.1-0.6,1.6-1c0.4-0.3,0.7-0.6,1.1-0.9c0.2-0.2,0.4-0.4,0.6-0.6c0.4-0.3,0.6-0.7,0.8-1.1c0.2-0.4,0.4-0.8,0.4-1.3
			c0-0.8-0.2-1.7-0.8-2.3c-0.1-0.2-0.1-0.3-0.2-0.4c-0.7-1-1.3-2.1-2.3-2.9c-0.4-0.4-0.9-0.9-1.4-1.1c-0.8-0.4-1.4-0.7-2.3-0.8
			c-1.2-0.2-2.5,0.3-3.4,1.1c-0.8,0.6-1.3,1.6-1.7,2.5C129,174.4,128.9,174.7,128.8,174.9z"/>
		<path class="st1" d="M245.6,58.7c-0.1,0.5-0.2,1.1-0.2,1.6c0,0.5,0,1.1,0.1,1.6c0,0.3,0.1,0.5,0.1,0.8c0.3,1.1,0.7,1.9,1.3,2.8
			c0.1,0.1,0.1,0.2,0.2,0.2c0.3,0.3,0.6,0.6,0.9,0.8c0.3,0.2,0.7,0.4,1.1,0.5c0.1,0,0.2,0.1,0.3,0.1c1.4,0.4,2.7,0.2,4-0.3
			c0.6-0.2,1.1-0.6,1.6-1c0.4-0.3,0.7-0.6,1.1-0.9c0.2-0.2,0.4-0.4,0.6-0.6c0.4-0.3,0.6-0.7,0.8-1.1c0.2-0.4,0.4-0.8,0.4-1.3
			c0-0.8-0.2-1.7-0.8-2.3c-0.1-0.2-0.1-0.3-0.2-0.4c-0.7-1-1.3-2.1-2.3-2.9c-0.4-0.4-0.9-0.9-1.4-1.1c-0.8-0.4-1.4-0.7-2.3-0.8
			c-1.2-0.2-2.5,0.3-3.4,1.1c-0.8,0.6-1.3,1.6-1.7,2.5C245.7,58.2,245.7,58.5,245.6,58.7z"/>
		<path class="st1" d="M54.8,234.8c1.2,0.9,2.5,1.3,3.9,1.4c1,0.7,2.3,0.7,3.5,0.3c3.7-1.3,5.7-5.4,4.8-9.1c-1-4-4.8-6.6-8.9-5.7
			c-3.9,0.9-6.3,4.6-5.9,8.5C52.4,232,53.4,233.6,54.8,234.8z"/>
		<path class="st1" d="M59.6,261.7c3.6,2.4,7.3-3.2,3.7-5.6C59.7,253.7,56,259.3,59.6,261.7z"/>
		<path class="st1" d="M136,135.4c3.6,2.4,7.3-3.2,3.7-5.6C136.1,127.4,132.4,133,136,135.4z"/>
		<path class="st1" d="M60.7,100.9c3.6,2.4,7.3-3.2,3.7-5.6C60.8,93,57.1,98.5,60.7,100.9z"/>
		<path class="st1" d="M348.4,36.5c3.6,2.4,7.3-3.2,3.7-5.6C348.6,28.5,344.8,34.1,348.4,36.5z"/>
		<path class="st1" d="M208.3,55.1c3.6,2.4,7.3-3.2,3.7-5.6C208.4,47.2,204.7,52.7,208.3,55.1z"/>
		<path class="st1" d="M54.3,193.3c3.6,2.4,7.3-3.2,3.7-5.6C54.4,185.3,50.7,190.9,54.3,193.3z"/>
		<path class="st1" d="M28,157.6c3.6,2.4,7.3-3.2,3.7-5.6C28.1,149.6,24.4,155.2,28,157.6z"/>
		<path class="st1" d="M421.6,127.8c3.6,2.4,7.3-3.2,3.7-5.6C421.7,119.8,418,125.4,421.6,127.8z"/>
		<path class="st1" d="M375.9,165.7c3.6,2.4,7.3-3.2,3.7-5.6C376,157.8,372.3,163.3,375.9,165.7z"/>
		<path class="st1" d="M66.7,375.9c3.6,2.4,7.3-3.2,3.7-5.6C66.8,368,63.1,373.5,66.7,375.9z"/>
		<path class="st1" d="M449.8,332.8c3.6,2.4,7.3-3.2,3.7-5.6C449.9,324.9,446.2,330.4,449.8,332.8z"/>
		<path class="st1" d="M177.8,348.4c1.1,0.2,1.9-0.1,2.4-0.6c4.5-2,7.7-6.6,7.1-11.6c-0.6-5.2-5.2-8.5-10.3-8.5
			c-5.3,0.1-11,4.4-11.6,9.9C164.7,344.7,172.1,347.5,177.8,348.4z"/>
		<path class="st1" d="M248.5,106.3c1.1,0.2,1.9-0.1,2.4-0.6c4.5-2,7.7-6.6,7.1-11.6c-0.6-5.2-5.2-8.5-10.3-8.5
			c-5.3,0.1-11,4.4-11.6,9.9C235.4,102.6,242.8,105.4,248.5,106.3z"/>
		<path class="st1" d="M360.3,374.8c5.3,1.1,10.4-1,12.4-5.4c2.1-2.4,2.9-5.6,1.5-9.1c-1.9-4.5-6.9-7.8-11.7-8
			c-6.1-0.3-11.4,4.8-12,10.7C349.8,369,354.8,373.6,360.3,374.8z"/>
		<path class="st1" d="M412.6,328.3c5.3,1.1,10.4-1,12.4-5.4c2.1-2.4,2.9-5.6,1.5-9.1c-1.9-4.5-6.9-7.8-11.7-8
			c-6.1-0.3-11.4,4.8-12,10.7C402.2,322.5,407.1,327.1,412.6,328.3z"/>
		<path class="st1" d="M188.6,243.5c7.9,9.5,22.1,4.2,26.2-6.1c2.3-5.8,0.3-11.9-5-15.2c-6.1-4-14.2-6.6-20-0.6
			C184.6,227.1,183.6,237.6,188.6,243.5z"/>
		<path class="st1" d="M179.5,112c7.9,9.6,22.1,4.2,26.2-6.1c2.3-5.8,0.3-11.9-5-15.2c-6.1-4-14.2-6.6-20-0.6
			C175.5,95.6,174.6,106,179.5,112z"/>
		<path class="st1" d="M152.7,233.9c3.1,1.7,6.5,1,8.4-1.5c0.2,0,0.4,0,0.6,0c1.2-0.1,2.1-1.2,2.5-2.2c1.7-4.2-0.4-8.7-4.6-10.3
			c-4.2-1.6-9.1,0.3-10.8,4.5C147.4,228,149.4,232.1,152.7,233.9z"/>
		<path class="st1" d="M160.6,297c-3.8-2.3-8.4-1.5-10.8,2.3c-2.3,3.6-1.4,8.5,2.2,10.8c3.7,2.4,8.4,1,10.8-2.5
			C165.2,304.1,164.4,299.3,160.6,297z"/>
		<path class="st1" d="M367,264.7c-3.8-2.3-8.4-1.5-10.8,2.3c-2.3,3.6-1.4,8.5,2.2,10.8c3.7,2.4,8.4,1,10.8-2.5
			C371.6,271.7,370.8,266.9,367,264.7z"/>
		<path class="st1" d="M190.2,320.7c3.6,2.4,7.3-3.2,3.7-5.6C190.3,312.7,186.6,318.3,190.2,320.7z"/>
		<path class="st1" d="M183.6,167.3c3.6,2.4,7.3-3.2,3.7-5.6C183.7,159.3,180,164.9,183.6,167.3z"/>
		<path class="st1" d="M187,383.4c3.6,2.4,7.3-3.2,3.7-5.6C187.1,375.5,183.4,381.1,187,383.4z"/>
		<path class="st1" d="M121.6,343.9c3.6,2.4,7.3-3.2,3.7-5.6C121.7,335.9,118,341.5,121.6,343.9z"/>
		<path class="st1" d="M91.7,193.5c3.6,2.4,7.3-3.2,3.7-5.6C91.8,185.6,88.1,191.1,91.7,193.5z"/>
		<path class="st1" d="M267.9,188.4c3.6,2.4,7.3-3.2,3.7-5.6C268,180.5,264.3,186,267.9,188.4z"/>
		<path class="st1" d="M297.4,323.1c0.6,3.6,3.7,5.5,7,6.4c0.3,0.1,0.7,0.2,1.1,0.2c0.5,0.1,1.1,0,1.5-0.3c3.3-1.1,5.4-4.2,4.6-7.7
			c-0.9-3.7-4.1-6.2-7.9-5.8C300,316.3,296.8,319.2,297.4,323.1z"/>
		<path class="st1" d="M258.8,245.1c1.4,3.4,4.9,5.1,8.4,5.6c0.4,0.1,0.7,0.1,1.2,0.1c0.5,0,1-0.1,1.4-0.3c3.1-1.1,5.1-3.8,4.8-7.2
			c-0.2-3.2-2.2-6.2-5.2-7.6c-2.8-1.4-6.7-1-8.9,1.3C258.2,239,257.6,242.2,258.8,245.1z"/>
		<path class="st1" d="M226.2,190.5c3.6,2.4,7.3-3.2,3.7-5.6C226.3,182.5,222.6,188.1,226.2,190.5z"/>
		<path class="st1" d="M318.5,293.7c3.6,2.4,7.3-3.2,3.7-5.6C318.7,285.7,314.9,291.3,318.5,293.7z"/>
		<path class="st1" d="M361.4,333c0.8,0.5,1.6,0.7,2.5,0.5l1.6-0.3c0.8-0.2,1.7-0.7,2.1-1.4c0.5-0.7,0.7-1.7,0.5-2.5
			c-0.2-0.8-0.7-1.7-1.4-2.1c-0.8-0.5-1.6-0.7-2.5-0.5c-0.5,0.1-1,0.2-1.6,0.3c-0.8,0.2-1.7,0.7-2.1,1.4c-0.5,0.7-0.7,1.7-0.5,2.5
			C360.2,331.7,360.7,332.5,361.4,333z"/>
		<path class="st1" d="M320.5,361.9c3.6,2.4,7.3-3.2,3.7-5.6C320.6,353.9,316.9,359.5,320.5,361.9z"/>
		<path class="st1" d="M269.9,312.8c3.6,2.4,7.3-3.2,3.7-5.6C270.1,304.8,266.3,310.4,269.9,312.8z"/>
		<path class="st1" d="M404.6,383.4c3.6,2.4,7.3-3.2,3.7-5.6C404.8,375.5,401,381.1,404.6,383.4z"/>
		<path class="st1" d="M348.4,409c3.6,2.4,7.3-3.2,3.7-5.6C348.6,401.1,344.8,406.6,348.4,409z"/>
		<path class="st1" d="M88,39.9c3.6,2.4,7.3-3.2,3.7-5.6C88.2,31.9,84.4,37.5,88,39.9z"/>
		<path class="st1" d="M248.4,397.7c-4.1,3-4.9,8.5-2.4,12.8c2.3,4.1,6.7,7.2,11.6,6.2c3.8-0.8,7-3.9,8.5-7.4
			c1.7-4.1,0.6-8.1-3-10.4c-0.1,0-0.1-0.1-0.2-0.1C258.7,395.4,252.8,394.4,248.4,397.7z"/>
		<path class="st1" d="M224.2,294.4c-4.1,3-4.9,8.5-2.4,12.8c2.3,4.1,6.7,7.2,11.6,6.2c3.8-0.8,7-3.9,8.5-7.4
			c1.7-4.1,0.6-8.1-3-10.4c-0.1,0-0.1-0.1-0.2-0.1C234.6,292.1,228.7,291.2,224.2,294.4z"/>
		<path class="st1" d="M237.2,384.3c3.6,2.4,7.3-3.2,3.7-5.6C237.3,376.4,233.6,381.9,237.2,384.3z"/>
		<path class="st1" d="M272.8,366.8c3.6,2.4,7.3-3.2,3.7-5.6C272.9,358.8,269.2,364.4,272.8,366.8z"/>
		<path class="st1" d="M311.8,255.3c3.6,2.4,7.3-3.2,3.7-5.6C312,247.4,308.2,252.9,311.8,255.3z"/>
		<path class="st1" d="M302.4,419.5c3.6,2.4,7.3-3.2,3.7-5.6C302.5,411.6,298.8,417.1,302.4,419.5z"/>
		<path class="st1" d="M199.7,418.1c0.3,2.6,2,5.1,4.5,6.1c0.8,0.3,1.6,0.4,2.5,0.3c2,0.4,4,0.1,5.5-1.4c1.6-1.6,2.1-3.8,1.9-5.9
			c-0.5-4.3-4.3-7.1-8.6-6.3C201.8,411.5,199.3,414.4,199.7,418.1z"/>
		<path class="st1" d="M137.1,404.7c-4.7-3.5-12-2.9-15,2.4c-3.2,5.6-0.1,12.2,5.2,15.1c4.3,2.9,9.3-0.1,11.6-4
			C141.5,413.8,141.5,408,137.1,404.7z"/>
		<path class="st1" d="M170.6,433.4c3.6,2.4,7.3-3.2,3.7-5.6C170.7,425.5,167,431,170.6,433.4z"/>
		<path class="st1" d="M198.1,152.8c3.6,2.4,7.3-3.2,3.7-5.6C198.2,144.8,194.5,150.4,198.1,152.8z"/>
		<path class="st1" d="M101.3,378.2c-1.2-0.9-2.7-1.6-4.1-1.9c-2.2-0.5-4.6-0.4-6.2,1.4c-2.1,2.3-1.1,5.5,0.3,8
			c0.5,0.8,1.1,1.4,2,1.7c0.8,0.3,1.8,0.2,2.5-0.2c0,0,0.1,0,0.1,0c0.3,0.2,0.7,0.2,1.1,0.2c2.7-0.1,5.7-0.6,6.8-3.4
			C104.7,381.6,103.1,379.5,101.3,378.2z"/>
		<path class="st1" d="M67.6,156.4c4.1,0,8-2,9.3-6.1c1.1-3.5,0.2-7.8-2.5-10.4c-3.5-3.4-8.8-3.4-12.7-0.8
			c-3.8,2.5-5.8,7.2-4.8,11.6C58.1,155.8,62.9,158.3,67.6,156.4z"/>
	</g>
</g>
</svg>
